<svg width="62" height="59" viewBox="0 0 62 59" fill="none" xmlns="http://www.w3.org/2000/svg">
<path d="M26.3551 48.3175C38.4846 48.3175 48.3176 38.4845 48.3176 26.355C48.3176 14.2254 38.4846 4.39246 26.3551 4.39246C14.2255 4.39246 4.39258 14.2254 4.39258 26.355C4.39258 38.4845 14.2255 48.3175 26.3551 48.3175Z" fill="#FEF0CD"/>
<path d="M26.3551 32.9437C29.9939 32.9437 32.9438 29.9938 32.9438 26.355C32.9438 22.7161 29.9939 19.7662 26.3551 19.7662C22.7162 19.7662 19.7663 22.7161 19.7663 26.355C19.7663 29.9938 22.7162 32.9437 26.3551 32.9437Z" fill="#FEF0CD"/>
<path d="M26.3551 48.3175C38.4846 48.3175 48.3176 38.4845 48.3176 26.355C48.3176 14.2254 38.4846 4.39246 26.3551 4.39246C14.2255 4.39246 4.39258 14.2254 4.39258 26.355C4.39258 38.4845 14.2255 48.3175 26.3551 48.3175Z" stroke="#FFFCF5" stroke-width="1.66667" stroke-linecap="round" stroke-linejoin="round"/>
<path d="M26.3551 32.9437C29.9939 32.9437 32.9438 29.9938 32.9438 26.355C32.9438 22.7161 29.9939 19.7662 26.3551 19.7662C22.7162 19.7662 19.7663 22.7161 19.7663 26.355C19.7663 29.9938 22.7162 32.9437 26.3551 32.9437Z" stroke="#FFFCF5" stroke-width="1.66667" stroke-linecap="round" stroke-linejoin="round"/>
<path d="M35.3551 54.3175C47.4846 54.3175 57.3176 44.4845 57.3176 32.355C57.3176 20.2254 47.4846 10.3925 35.3551 10.3925C23.2255 10.3925 13.3926 20.2254 13.3926 32.355C13.3926 44.4845 23.2255 54.3175 35.3551 54.3175Z" stroke="#D89B04" stroke-width="1.66667" stroke-linecap="round" stroke-linejoin="round"/>
<path d="M35.3551 38.9437C38.9939 38.9437 41.9438 35.9938 41.9438 32.355C41.9438 28.7161 38.9939 25.7662 35.3551 25.7662C31.7162 25.7662 28.7663 28.7161 28.7663 32.355C28.7663 35.9938 31.7162 38.9437 35.3551 38.9437Z" stroke="#D89B04" stroke-width="1.66667" stroke-linecap="round" stroke-linejoin="round"/>
</svg>
