<svg width="149" height="41" viewBox="0 0 149 41" fill="none" xmlns="http://www.w3.org/2000/svg">
<path d="M13.5039 32.7368C11.8743 32.7309 10.3726 32.4504 8.99896 31.8952C7.64653 31.3189 6.46422 30.5209 5.45202 29.5014C4.46105 28.4608 3.69296 27.2411 3.14774 25.8423C2.60259 24.4223 2.33303 22.8764 2.33906 21.2044C2.34493 19.5748 2.63607 18.0732 3.21245 16.6996C3.78891 15.3048 4.59749 14.1014 5.63819 13.0893C6.67896 12.056 7.89878 11.2561 9.29766 10.6898C10.6965 10.1234 12.2108 9.84311 13.8404 9.84899C14.8986 9.8528 15.9351 10.0047 16.9499 10.3046C17.9859 10.5835 18.9262 10.9996 19.7708 11.5529C20.6365 12.1063 21.3749 12.7651 21.9859 13.5292L18.9899 16.82C18.4838 16.3102 17.9563 15.8744 17.4073 15.5127C16.8796 15.1298 16.3092 14.842 15.6961 14.6494C15.1043 14.4356 14.4698 14.3275 13.7925 14.325C12.8825 14.3218 12.0247 14.488 11.2193 14.8237C10.435 15.1595 9.74544 15.6332 9.15064 16.2448C8.55591 16.8353 8.07709 17.5637 7.71418 18.4301C7.3725 19.2755 7.19979 20.2166 7.19606 21.2537C7.19224 22.3119 7.35808 23.2754 7.69357 24.1444C8.02914 24.9921 8.50269 25.724 9.11423 26.34C9.72585 26.9348 10.4543 27.403 11.2997 27.7447C12.1662 28.0653 13.118 28.2275 14.1551 28.2312C14.8323 28.2336 15.4887 28.1408 16.1243 27.9526C16.7599 27.7644 17.3429 27.5019 17.8732 27.1652C18.4247 26.8286 18.9129 26.4388 19.3378 25.9959L21.6418 29.7185C21.1318 30.2881 20.4421 30.8041 19.5727 31.2666C18.7245 31.7292 17.7708 32.0961 16.7116 32.3674C15.6525 32.6176 14.5833 32.7407 13.5039 32.7368Z" fill="#111111"/>
<path d="M25.5909 21.9569C25.577 25.8068 28.6867 28.939 32.5366 28.9529C33.4197 28.9561 34.265 28.7949 35.0435 28.4982C35.1859 28.4439 35.2571 28.4168 35.3136 28.404C35.3693 28.3914 35.4095 28.3862 35.4666 28.3842C35.5245 28.3822 35.5881 28.389 35.7152 28.4026L39.9134 28.8519C40.3137 28.8947 40.5138 28.9161 40.6322 28.8445C40.7352 28.7821 40.8057 28.6776 40.8248 28.5586C40.8467 28.422 40.7516 28.2446 40.5616 27.8897L39.2291 25.402C39.1194 25.1971 39.0645 25.0947 39.0399 24.9963C39.0155 24.8991 39.0098 24.8291 39.0181 24.7293C39.0264 24.6282 39.0713 24.4967 39.1609 24.2338C39.3993 23.535 39.5298 22.7863 39.5326 22.0072C39.5465 18.1573 36.4368 15.0251 32.5869 15.0112C28.737 14.9973 25.6048 18.107 25.5909 21.9569Z" fill="#4DC85B"/>
<path d="M35.4247 24.0426C35.4247 24.0426 34.3439 25.2689 32.5499 25.2624C30.7559 25.256 29.684 24.0219 29.684 24.0219" fill="#4DC85B"/>
<path d="M29.9038 19.9222C29.903 20.1486 30.0859 20.3329 30.3124 20.3337C30.5388 20.3345 30.7231 20.1516 30.7239 19.9251C30.7247 19.6987 30.5418 19.5144 30.3153 19.5136C30.0889 19.5128 29.9046 19.6957 29.9038 19.9222Z" fill="#4DC85B"/>
<path d="M34.4144 19.9384C34.4135 20.1649 34.5965 20.3491 34.8229 20.35C35.0494 20.3508 35.2336 20.1679 35.2345 19.9414C35.2353 19.7149 35.0523 19.5307 34.8259 19.5299C34.5994 19.529 34.4152 19.712 34.4144 19.9384Z" fill="#4DC85B"/>
<path d="M35.4247 24.0426C35.4247 24.0426 34.3439 25.2689 32.5499 25.2624C30.7559 25.256 29.684 24.0219 29.684 24.0219M30.3138 19.9236L30.3056 19.9236M34.8244 19.9399L34.8162 19.9399M32.5366 28.9529C28.6867 28.939 25.577 25.8068 25.5909 21.9569C25.6048 18.107 28.737 14.9973 32.5869 15.0112C36.4368 15.0251 39.5465 18.1573 39.5326 22.0072C39.5298 22.7863 39.3993 23.535 39.1609 24.2338C39.0713 24.4967 39.0264 24.6282 39.0181 24.7293C39.0098 24.8291 39.0155 24.8991 39.0399 24.9963C39.0645 25.0947 39.1194 25.1971 39.2291 25.402L40.5616 27.8897C40.7516 28.2446 40.8467 28.422 40.8248 28.5586C40.8057 28.6776 40.7352 28.7821 40.6322 28.8445C40.5138 28.9161 40.3137 28.8947 39.9134 28.8519L35.7152 28.4026C35.5881 28.389 35.5245 28.3822 35.4666 28.3842C35.4095 28.3862 35.3693 28.3914 35.3136 28.404C35.2571 28.4168 35.1859 28.4439 35.0435 28.4982C34.265 28.7949 33.4197 28.9561 32.5366 28.9529ZM29.9038 19.9222C29.903 20.1486 30.0859 20.3329 30.3124 20.3337C30.5388 20.3345 30.7231 20.1516 30.7239 19.9251C30.7247 19.6987 30.5418 19.5144 30.3153 19.5136C30.0889 19.5128 29.9046 19.6957 29.9038 19.9222ZM34.4144 19.9384C34.4135 20.1649 34.5965 20.3491 34.8229 20.35C35.0494 20.3508 35.2336 20.1679 35.2345 19.9414C35.2353 19.7149 35.0523 19.5307 34.8259 19.5299C34.5994 19.529 34.4152 19.712 34.4144 19.9384Z" stroke="#111111" stroke-width="1.64021" stroke-linecap="round" stroke-linejoin="round"/>
<path d="M45.0292 32.533L45.0897 15.7395L49.4072 15.7551L49.5218 19.1841L48.6315 19.5618C48.8671 18.8008 49.2823 18.1144 49.8771 17.5028C50.4931 16.8701 51.2251 16.3648 52.073 15.9869C52.921 15.609 53.8105 15.4217 54.7417 15.4251C56.0116 15.4297 57.0688 15.6875 57.9136 16.1984C58.7795 16.7095 59.4222 17.4843 59.8417 18.5229C60.2825 19.5403 60.5002 20.8004 60.4947 22.303L60.4577 32.5887L55.9497 32.5724L55.9856 22.636C55.9883 21.8741 55.8848 21.2388 55.675 20.7301C55.4652 20.2214 55.1385 19.8498 54.6949 19.6154C54.2725 19.3599 53.7438 19.2522 53.1087 19.2922C52.6008 19.2904 52.1243 19.3733 51.6793 19.5411C51.2554 19.6877 50.8843 19.9086 50.5657 20.2037C50.2684 20.4989 50.0238 20.8367 49.8319 21.2169C49.6612 21.5973 49.5751 22.0097 49.5735 22.4541L49.5371 32.5493L47.3149 32.5413C46.8281 32.5395 46.3943 32.538 46.0133 32.5366C45.6324 32.5352 45.3043 32.534 45.0292 32.533ZM70.0471 32.6233L63.0601 15.8043L68.0125 15.8222L72.4434 28.3779L71.3951 28.5646L76.1394 15.8515L80.9648 15.8689L73.5074 32.6357L70.0471 32.6233ZM91.1594 33.0168C89.3393 33.0103 87.7534 32.6342 86.4016 31.8886C85.0497 31.143 83.9952 30.1233 83.238 28.8295C82.4807 27.5358 82.1051 26.0529 82.1112 24.381C82.1158 23.09 82.3317 21.9056 82.7589 20.8277C83.1861 19.7499 83.782 18.8208 84.5467 18.0405C85.3115 17.239 86.2132 16.6285 87.2518 16.209C88.3116 15.7684 89.4552 15.5503 90.6827 15.5547C91.8256 15.5588 92.883 15.7743 93.855 16.2011C94.8271 16.6067 95.661 17.1917 96.3566 17.9561C97.0735 18.6995 97.6206 19.5797 97.9979 20.597C98.3752 21.6142 98.5405 22.7259 98.4938 23.9321L98.457 25.3288L84.9651 25.2802L84.2449 22.5157L94.7527 22.5535L94.2427 23.1231L94.2453 22.4247C94.205 21.8532 94.0164 21.334 93.6795 20.8671C93.3637 20.4004 92.9523 20.0391 92.4453 19.7833C91.9382 19.5275 91.3673 19.3985 90.7324 19.3962C89.8011 19.3928 89.0069 19.5698 88.3495 19.9273C87.7133 20.2848 87.2246 20.8121 86.8834 21.5093C86.5423 22.2065 86.3699 23.0524 86.3663 24.0471C86.3627 25.063 86.5712 25.9421 86.9918 26.6843C87.4335 27.4267 88.0452 28.0109 88.8267 28.437C89.6295 28.842 90.5706 29.0464 91.6499 29.0503C92.3907 29.053 93.0683 28.9391 93.6829 28.7085C94.2975 28.4779 94.955 28.0781 95.6555 27.5092L97.8034 30.5329C97.1876 31.0809 96.5087 31.5441 95.7666 31.9223C95.0245 32.2795 94.2617 32.5518 93.4779 32.7395C92.6942 32.9271 91.9213 33.0196 91.1594 33.0168ZM101.793 32.7377L101.854 15.9442L106.203 15.9599L106.342 21.3572L105.585 20.2434C105.842 19.3766 106.257 18.595 106.831 17.8987C107.405 17.1811 108.074 16.6227 108.837 16.2233C109.622 15.8241 110.437 15.6259 111.284 15.629C111.644 15.6303 111.993 15.6633 112.331 15.728C112.669 15.7927 112.955 15.8678 113.187 15.9533L111.963 20.9013C111.71 20.7734 111.403 20.6665 111.044 20.5805C110.684 20.4734 110.314 20.4192 109.933 20.4178C109.425 20.416 108.949 20.5095 108.504 20.6984C108.08 20.8661 107.708 21.1188 107.39 21.4563C107.071 21.7726 106.816 22.1526 106.624 22.5964C106.453 23.0402 106.366 23.5267 106.364 24.0557L106.333 32.7541L101.793 32.7377ZM121.363 33.1258C119.797 33.1201 118.401 32.8611 117.175 32.3488C115.971 31.8153 115 31.0922 114.262 30.1795L117.065 27.7769C117.718 28.4777 118.447 28.9882 119.25 29.3086C120.053 29.6078 120.856 29.7588 121.661 29.7617C121.978 29.7629 122.264 29.7322 122.518 29.6696C122.794 29.5859 123.027 29.481 123.218 29.3547C123.409 29.2072 123.547 29.0384 123.632 28.8482C123.739 28.637 123.793 28.4149 123.793 28.1821C123.795 27.7165 123.606 27.3455 123.226 27.069C123.015 26.9624 122.687 26.8342 122.243 26.6845C121.799 26.5135 121.229 26.3316 120.531 26.1386C119.453 25.8596 118.533 25.5388 117.772 25.1763C117.033 24.7926 116.442 24.3672 115.999 23.9C115.62 23.4542 115.325 22.9769 115.116 22.4682C114.927 21.9385 114.834 21.3561 114.836 20.7212C114.839 19.9593 115.011 19.2721 115.351 18.6596C115.692 18.0259 116.16 17.4879 116.754 17.0456C117.37 16.6033 118.069 16.2672 118.853 16.0372C119.637 15.7861 120.463 15.6621 121.331 15.6652C122.198 15.6683 123.044 15.7772 123.869 15.9918C124.694 16.2065 125.455 16.5161 126.151 16.9207C126.87 17.3043 127.492 17.7615 128.02 18.2925L125.597 20.9505C125.218 20.5893 124.785 20.2597 124.299 19.9617C123.835 19.6637 123.349 19.4291 122.841 19.258C122.334 19.0869 121.879 19.0006 121.477 18.9991C121.118 18.9978 120.789 19.0284 120.493 19.0908C120.217 19.1533 119.984 19.2477 119.793 19.374C119.602 19.5003 119.454 19.6691 119.347 19.8803C119.262 20.0705 119.219 20.282 119.218 20.5148C119.217 20.7476 119.269 20.97 119.374 21.182C119.5 21.3941 119.669 21.5746 119.88 21.7235C120.113 21.8513 120.451 22.0007 120.894 22.1716C121.359 22.3426 121.983 22.5353 122.765 22.7498C123.78 23.0286 124.636 23.3386 125.333 23.6797C126.052 24.0209 126.622 24.4145 127.043 24.8605C127.402 25.2427 127.665 25.6775 127.832 26.1649C128 26.6523 128.083 27.1923 128.081 27.7849C128.077 28.8219 127.777 29.7521 127.182 30.5753C126.607 31.3775 125.811 32.0095 124.794 32.4715C123.776 32.9122 122.633 33.1303 121.363 33.1258ZM138.419 32.9651C136.937 32.9597 135.594 32.6691 134.39 32.0934C133.186 31.4964 132.226 30.6993 131.51 29.702C130.794 28.7047 130.438 27.6029 130.442 26.3966C130.445 25.6135 130.543 24.9049 130.736 24.2706C130.95 23.6365 131.258 23.0661 131.662 22.5597C132.088 22.0533 132.597 21.6106 133.191 21.2318C133.785 20.853 134.474 20.5275 135.258 20.2552L134.937 21.3651C134.345 21.1302 133.817 20.8531 133.352 20.534C132.888 20.1937 132.487 19.8113 132.15 19.3868C131.834 18.9624 131.582 18.5064 131.393 18.019C131.226 17.5104 131.143 16.981 131.145 16.4308C131.149 15.2879 131.481 14.2627 132.14 13.355C132.799 12.4473 133.68 11.7309 134.783 11.2058C135.885 10.6595 137.124 10.3888 138.5 10.3938C139.854 10.3987 141.081 10.6782 142.18 11.2324C143.278 11.7655 144.154 12.4882 144.807 13.4007C145.459 14.3131 145.784 15.3407 145.78 16.4836C145.778 17.0338 145.691 17.5626 145.52 18.0699C145.349 18.5561 145.104 18.9996 144.785 19.4006C144.466 19.8016 144.063 20.1705 143.575 20.5074C143.108 20.8443 142.557 21.1386 141.921 21.3903L141.734 20.4055C142.431 20.6197 143.065 20.9182 143.635 21.3012C144.227 21.6632 144.722 22.1094 145.123 22.64C145.544 23.1494 145.87 23.722 146.1 24.3578C146.331 24.9935 146.445 25.6924 146.442 26.4543C146.438 27.6818 146.074 28.7916 145.351 29.7837C144.628 30.7758 143.662 31.5554 142.453 32.1225C141.245 32.6895 139.9 32.9704 138.419 32.9651ZM138.433 29.0603C139.068 29.0626 139.65 28.9377 140.18 28.6857C140.71 28.4336 141.124 28.0965 141.422 27.6743C141.72 27.2309 141.87 26.7235 141.872 26.1521C141.874 25.5595 141.728 25.0404 141.433 24.5949C141.138 24.1282 140.727 23.7564 140.199 23.4793C139.692 23.2024 139.11 23.0627 138.454 23.0604C137.798 23.058 137.205 23.1934 136.675 23.4666C136.166 23.7399 135.763 24.1089 135.465 24.5734C135.167 25.0168 135.017 25.5347 135.015 26.1273C135.013 26.6776 135.159 27.1755 135.454 27.621C135.749 28.0453 136.149 28.396 136.656 28.673C137.184 28.9288 137.777 29.0579 138.433 29.0603ZM138.468 19.1874C139.04 19.1894 139.548 19.0854 139.993 18.8754C140.439 18.6442 140.789 18.3492 141.044 17.9903C141.321 17.6103 141.46 17.1664 141.462 16.6585C141.463 16.1717 141.327 15.7373 141.054 15.3554C140.801 14.9524 140.453 14.6336 140.009 14.3992C139.566 14.1648 139.058 14.0466 138.487 14.0445C137.915 14.0425 137.396 14.157 136.93 14.3881C136.485 14.6193 136.124 14.9355 135.847 15.3366C135.592 15.7166 135.463 16.1501 135.462 16.6368C135.46 17.1448 135.585 17.5897 135.838 17.9715C136.112 18.3323 136.47 18.6299 136.914 18.8643C137.379 19.0776 137.897 19.1853 138.468 19.1874Z" fill="#111111"/>
</svg>
