<svg width="61" height="61" viewBox="0 0 61 61" fill="none" xmlns="http://www.w3.org/2000/svg">
<path d="M25.289 59.3599C22.2417 54.8045 20.0797 49.6598 17.4681 44.8671C16.5184 43.1243 15.4402 41.482 14.3621 39.8398C13.8732 39.0829 12.0522 37.8149 12.9096 37.4546C13.5883 37.1306 15.7669 38.3259 16.4903 38.5884C19.8643 39.9876 23.0037 41.8812 26.2213 43.61C26.766 43.9088 28.8888 45.5622 29.3105 45.4393C30.0897 45.2437 30.4891 42.4451 30.5728 41.758C30.7794 39.1102 28.6369 30.9463 29.2122 29.5638C29.3825 29.1197 31.5165 29.7285 31.9103 29.8346C34.3598 30.7143 36.6194 32.6749 38.4992 34.4149C39.231 35.0852 39.8985 35.8058 40.4879 36.6912C40.5381 36.7554 40.9906 37.3335 40.9906 37.3335C45.289 34.4873 42.546 26.4826 43.8643 24.7257C44.2776 24.195 47.0595 26.1613 47.4254 26.4964C48.5873 27.4516 55.2853 34.9506 55.3747 36.1237C55.5535 38.4698 50.8166 40.6234 49.2246 41.7658C42.6416 46.1929 36.4469 51.2485 30.3163 56.2538" stroke="#ED9800" stroke-width="3.09711" stroke-miterlimit="1.5" stroke-linecap="round"/>
<path d="M27.4396 58.4022C26.99 58.7542 26.5543 58.9916 26.0543 59.2793" stroke="#ED9800" stroke-width="3.09711" stroke-miterlimit="1.5" stroke-linecap="round"/>
<path d="M7.73645 23.1689C9.54076 23.6214 11.359 23.9593 12.993 24.8558" stroke="#ED9800" stroke-width="3.09711" stroke-miterlimit="1.5" stroke-linecap="round"/>
<path d="M16.6376 14.0273C17.5342 14.7758 18.495 15.4741 19.3273 16.2729" stroke="#ED9800" stroke-width="3.09711" stroke-miterlimit="1.5" stroke-linecap="round"/>
<path d="M28.8064 6.67828C28.9126 8.66691 29.0467 10.4265 29.6389 12.242" stroke="#ED9800" stroke-width="3.09711" stroke-miterlimit="1.5" stroke-linecap="round"/>
<path d="M38.0288 4.43203C38.1629 6.19163 38.1266 6.01285 38.4256 7.85065" stroke="#ED9800" stroke-width="3.09711" stroke-miterlimit="1.5" stroke-linecap="round"/>
</svg>
