<svg width="25" height="24" viewBox="0 0 25 24" fill="none" xmlns="http://www.w3.org/2000/svg">
<g clip-path="url(#clip0_1093_235)">
<path d="M24.7805 12C24.7805 5.37258 19.4079 0 12.7805 0C6.1531 0 0.780518 5.37258 0.780518 12C0.780518 17.9895 5.16872 22.954 10.9055 23.8542V15.4688H7.85864V12H10.9055V9.35625C10.9055 6.34875 12.6971 4.6875 15.4381 4.6875C16.7506 4.6875 18.1243 4.92188 18.1243 4.92188V7.875H16.6111C15.1205 7.875 14.6555 8.80008 14.6555 9.75V12H17.9836L17.4516 15.4688H14.6555V23.8542C20.3923 22.954 24.7805 17.9895 24.7805 12Z" fill="#1877F2"/>
<path d="M17.4516 15.4688L17.9836 12H14.6555V9.75C14.6555 8.80102 15.1205 7.875 16.6111 7.875H18.1243V4.92188C18.1243 4.92188 16.7511 4.6875 15.4381 4.6875C12.6971 4.6875 10.9055 6.34875 10.9055 9.35625V12H7.85864V15.4688H10.9055V23.8542C12.148 24.0486 13.4131 24.0486 14.6555 23.8542V15.4688H17.4516Z" fill="white"/>
</g>
<defs>
<clipPath id="clip0_1093_235">
<rect width="24" height="24" fill="white" transform="translate(0.780518)"/>
</clipPath>
</defs>
</svg>
