<svg width="92" height="93" viewBox="0 0 92 93" fill="none" xmlns="http://www.w3.org/2000/svg">
<path d="M48.698 1.44863C46.6324 0.756708 45.3683 0.756708 43.3027 1.44863C38.2637 3.13627 38.4822 13.8161 40.0394 24.3533C36.0971 14.4581 30.9254 5.11159 25.7202 6.18109C23.5864 6.61974 22.4931 7.254 21.0537 8.88925C17.5926 12.8216 22.937 21.7477 29.4467 29.9823C21.1976 23.4909 12.26 18.1657 8.33535 21.6358C6.70351 23.0786 6.07142 24.1732 5.63773 26.3078C4.58683 31.4802 13.8106 36.5967 23.6391 40.5071C13.172 38.9791 2.62577 38.7974 0.949604 43.8021C0.257684 45.8676 0.257684 47.1318 0.949604 49.1973C2.62577 54.2019 13.172 54.0203 23.6391 52.4923C13.8106 56.4026 4.58652 61.5192 5.63742 66.6915C6.07142 68.8262 6.70351 69.9208 8.33535 71.3635C12.26 74.8334 21.1979 69.5088 29.4467 63.0171C22.937 71.2519 17.5926 80.1778 21.054 84.1101C22.4934 85.7454 23.5867 86.3796 25.7202 86.8183C30.9257 87.8881 36.0974 78.541 40.04 68.6458C38.4825 79.183 38.264 89.8631 43.303 91.5508C45.3686 92.2427 46.6328 92.2427 48.6983 91.5508C53.7373 89.8631 53.5188 79.1827 51.9613 68.6452C55.9039 78.5407 61.0757 87.8881 66.2812 86.8183C68.4149 86.3796 69.5083 85.7454 70.9476 84.1101C74.4088 80.1778 69.0644 71.2519 62.5547 63.0171C70.8038 69.5088 79.7414 74.8334 83.666 71.3635C85.2981 69.9208 85.9302 68.8262 86.3639 66.6915C87.4151 61.5192 78.1911 56.4026 68.3625 52.4923C78.8294 54.0203 89.3756 54.2019 91.0517 49.1973C91.7436 47.1318 91.7436 45.8676 91.0517 43.8021C89.3756 38.7974 78.8294 38.9791 68.3625 40.5071C78.1911 36.5967 87.4148 31.4802 86.3639 26.3078C85.9299 24.1732 85.2981 23.0786 83.666 21.6358C79.7414 18.1657 70.8035 23.4906 62.5544 29.9823C69.064 21.7477 74.4088 12.8216 70.9473 8.88925C69.508 7.254 68.4149 6.61974 66.2812 6.18109C61.0757 5.11159 55.9039 14.4584 51.9613 24.3539C53.5188 13.8164 53.737 3.13627 48.698 1.44863Z" fill="#43A363"/>
</svg>
