<svg width="85" height="50" viewBox="0 0 85 50" fill="none" xmlns="http://www.w3.org/2000/svg">
<path fill-rule="evenodd" clip-rule="evenodd" d="M60.6026 47.5672C68.107 47.7482 75.7759 47.3863 82.9514 49.9524C83.379 50.1038 83.8495 49.8833 84.0041 49.4556C84.1555 49.0279 83.935 48.5575 83.5073 48.4029C76.1641 45.7775 68.3209 46.1065 60.6421 45.9222C60.1881 45.9091 59.8098 46.271 59.7999 46.725C59.7867 47.179 60.1486 47.554 60.6026 47.5672Z" fill="#00927C"/>
<path fill-rule="evenodd" clip-rule="evenodd" d="M59.9282 36.6719C62.2674 34.5196 64.8204 32.9072 67.9064 32.1081C68.3472 31.9942 68.6104 31.5451 68.4985 31.1056C68.3834 30.666 67.9327 30.4019 67.4951 30.5157C64.1394 31.3843 61.3593 33.122 58.8162 35.4608C58.4806 35.7681 58.4576 36.2889 58.7668 36.6232C59.0728 36.9571 59.5959 36.9792 59.9282 36.6719Z" fill="#00927C"/>
<path fill-rule="evenodd" clip-rule="evenodd" d="M53.4208 13.1742C54.4933 9.49764 56.6055 6.62157 59.8428 4.54461C60.2244 4.29951 60.3363 3.79023 60.0896 3.40827C59.8461 3.02631 59.3361 2.9151 58.9545 3.1602C55.3717 5.45988 53.0293 8.64258 51.8416 12.7132C51.7133 13.1488 51.9666 13.6062 52.4009 13.7331C52.8385 13.8605 53.2958 13.6098 53.4208 13.1742Z" fill="#00927C"/>
<path fill-rule="evenodd" clip-rule="evenodd" d="M16.458 8.18429C15.8197 8.93539 15.2473 9.74472 14.7604 10.6064C14.5432 10.99 14.1616 11.8052 14.1024 12.5043C14.0366 13.2492 14.2899 13.8776 14.9413 14.2085C15.8065 14.6474 16.4975 14.6017 17.0304 14.3362C17.5437 14.0812 17.945 13.5802 18.1983 12.9083C18.682 11.6243 18.6096 9.66182 18.3563 8.54192C19.0373 7.83919 19.7841 7.20191 20.5836 6.63537C26.5384 2.416 35.2733 3.97183 41.9946 10.2807C44.347 12.4895 45.4787 17.1284 46.0676 22.1334C46.9855 29.9263 46.4624 38.6302 46.39 41.1803C46.3736 41.81 46.4328 42.1837 46.4657 42.2584C46.6203 42.6256 46.8934 42.721 47.0842 42.7572C47.3606 42.8065 47.581 42.7539 47.7586 42.6618C47.9988 42.5354 48.1962 42.313 48.2883 41.9699C48.3377 41.7804 48.3508 41.5165 48.3442 41.2352C48.3377 41.0401 48.2982 40.8269 48.3377 40.6871C48.5943 39.7916 48.9035 38.9171 49.2062 38.0364C50.2162 35.0758 51.5224 32.3013 52.9732 29.5302C57.5825 20.725 62.0403 11.4213 69.5974 4.71272C69.9362 4.41169 69.9692 3.89122 69.6665 3.5517C69.3671 3.21218 68.8473 3.18124 68.5051 3.4826C60.7967 10.3237 56.2171 19.7876 51.5158 28.7673C50.282 31.1245 49.1503 33.4851 48.2093 35.9542C48.3048 31.5864 48.2686 25.5405 47.4691 20.191C46.7585 15.4334 45.4063 11.2288 43.1198 9.08146C35.7569 2.17024 26.1535 0.671014 19.6328 5.29341C18.9353 5.78822 18.2708 6.33238 17.6522 6.9226C14.2406 0.762155 6.93683 -1.70698 0.481925 1.23951C0.0673902 1.42803 -0.113554 1.91626 0.0739733 2.32915C0.264791 2.74204 0.751687 2.92431 1.16622 2.7358C6.98287 0.0808001 13.5793 2.45022 16.458 8.18429ZM16.935 10.2468C16.6685 10.6231 16.4218 11.0133 16.1915 11.4167C16.0698 11.6332 15.8592 12.0493 15.7704 12.4566C15.7506 12.552 15.7473 12.7014 15.7473 12.7705C15.9743 12.8824 16.152 12.9363 16.2967 12.8636C16.4777 12.7741 16.5698 12.5636 16.6587 12.3283C16.8824 11.7381 16.9548 10.9557 16.935 10.2468Z" fill="#00927C"/>
</svg>
