<svg width="94" height="93" viewBox="0 0 94 93" fill="none" xmlns="http://www.w3.org/2000/svg">
<g clip-path="url(#clip0_983_9003)">
<path d="M36.1504 10.85C36.1504 12.2748 36.431 13.6857 36.9763 15.0021C37.5216 16.3185 38.3208 17.5146 39.3283 18.5221C40.3358 19.5296 41.5319 20.3288 42.8483 20.8741C44.1647 21.4194 45.5755 21.7 47.0004 21.7C48.4252 21.7 49.8361 21.4194 51.1525 20.8741C52.4689 20.3288 53.665 19.5296 54.6725 18.5221C55.68 17.5146 56.4792 16.3185 57.0245 15.0021C57.5697 13.6857 57.8504 12.2748 57.8504 10.85C57.8504 9.42516 57.5697 8.01427 57.0245 6.69789C56.4792 5.3815 55.68 4.18541 54.6725 3.17789C53.665 2.17038 52.4689 1.37117 51.1525 0.825907C49.8361 0.280644 48.4252 0 47.0004 0C45.5755 0 44.1647 0.280644 42.8483 0.825907C41.5319 1.37117 40.3358 2.17038 39.3283 3.17789C38.3208 4.18541 37.5216 5.3815 36.9763 6.69789C36.431 8.01427 36.1504 9.42516 36.1504 10.85Z" fill="#013DFF"/>
<path d="M75.0584 68.8602C74.6849 68.4826 74.2405 68.1825 73.7507 67.9772C73.2609 67.772 72.7353 67.6655 72.2042 67.6641C71.6732 67.6626 71.147 67.7661 70.6561 67.9687C70.1651 68.1712 69.7191 68.4688 69.3435 68.8443C68.968 69.2199 68.6704 69.6659 68.4678 70.1568C68.2652 70.6478 68.1617 71.1739 68.1631 71.705C68.1645 72.2361 68.2709 72.7616 68.4762 73.2515C68.6814 73.7413 68.9815 74.1857 69.359 74.5592C69.732 74.9391 70.1765 75.2413 70.6669 75.4484C71.1573 75.6555 71.6839 75.7634 72.2162 75.7658C72.7486 75.7683 73.2761 75.6652 73.7684 75.4626C74.2607 75.2601 74.708 74.9619 75.0844 74.5855C75.4608 74.2091 75.7589 73.7618 75.9615 73.2695C76.1641 72.7772 76.2671 72.2497 76.2647 71.7174C76.2623 71.185 76.1544 70.6584 75.9473 70.168C75.7402 69.6776 75.4383 69.2331 75.0584 68.8602Z" fill="#013DFF"/>
<path d="M36.1504 82.1469C36.1504 83.5717 36.431 84.9826 36.9763 86.299C37.5216 87.6154 38.3208 88.8115 39.3283 89.819C40.3358 90.8265 41.5319 91.6257 42.8483 92.171C44.1647 92.7162 45.5755 92.9969 47.0004 92.9969C48.4252 92.9969 49.8361 92.7162 51.1525 92.171C52.4689 91.6257 53.665 90.8265 54.6725 89.819C55.68 88.8115 56.4792 87.6154 57.0245 86.299C57.5697 84.9826 57.8504 83.5717 57.8504 82.1469C57.8504 80.722 57.5697 79.3111 57.0245 77.9948C56.4792 76.6784 55.68 75.4823 54.6725 74.4748C53.665 73.4673 52.4689 72.668 51.1525 72.1228C49.8361 71.5775 48.4252 71.2969 47.0004 71.2969C45.5755 71.2969 44.1647 71.5775 42.8483 72.1228C41.5319 72.668 40.3358 73.4673 39.3283 74.4748C38.3208 75.4823 37.5216 76.6784 36.9763 77.9948C36.431 79.3111 36.1504 80.722 36.1504 82.1469Z" fill="#013DFF"/>
<path d="M82.6508 35.6484C81.2259 35.6484 79.815 35.9291 78.4987 36.4743C77.1823 37.0196 75.9862 37.8188 74.9787 38.8263C73.9712 39.8338 73.172 41.0299 72.6267 42.3463C72.0814 43.6627 71.8008 45.0736 71.8008 46.4984C71.8008 47.9233 72.0814 49.3342 72.6267 50.6506C73.172 51.9669 73.9712 53.163 74.9787 54.1705C75.9862 55.1781 77.1823 55.9773 78.4987 56.5225C79.815 57.0678 81.2259 57.3484 82.6508 57.3484C84.0756 57.3484 85.4865 57.0678 86.8029 56.5225C88.1193 55.9773 89.3154 55.1781 90.3229 54.1705C91.3304 53.163 92.1296 51.9669 92.6749 50.6506C93.2201 49.3342 93.5008 47.9233 93.5008 46.4984C93.5008 45.0736 93.2201 43.6627 92.6749 42.3463C92.1296 41.0299 91.3304 39.8338 90.3229 38.8263C89.3154 37.8188 88.1193 37.0196 86.8029 36.4743C85.4865 35.9291 84.0756 35.6484 82.6508 35.6484Z" fill="#013DFF"/>
<path d="M11.35 35.6484C9.92516 35.6484 8.51427 35.9291 7.19789 36.4743C5.8815 37.0196 4.68541 37.8188 3.67789 38.8263C2.67038 39.8338 1.87117 41.0299 1.32591 42.3463C0.780644 43.6627 0.5 45.0736 0.5 46.4984C0.5 47.9233 0.780644 49.3342 1.32591 50.6506C1.87117 51.9669 2.67038 53.163 3.67789 54.1705C4.68541 55.1781 5.8815 55.9773 7.19789 56.5225C8.51427 57.0678 9.92516 57.3484 11.35 57.3484C12.7748 57.3484 14.1857 57.0678 15.5021 56.5225C16.8185 55.9773 18.0146 55.1781 19.0221 54.1705C20.0296 53.163 20.8288 51.9669 21.3741 50.6506C21.9194 49.3342 22.2 47.9233 22.2 46.4984C22.2 45.0736 21.9194 43.6627 21.3741 42.3463C20.8288 41.0299 20.0296 39.8338 19.0221 38.8263C18.0146 37.8188 16.8185 37.0196 15.5021 36.4743C14.1857 35.9291 12.7748 35.6484 11.35 35.6484Z" fill="#013DFF"/>
<path d="M24.6412 18.4459C24.2678 18.0684 23.8233 17.7683 23.3335 17.5631C22.8437 17.3579 22.3181 17.2515 21.787 17.25C21.2559 17.2486 20.7298 17.3521 20.2389 17.5547C19.748 17.7573 19.3019 18.0549 18.9264 18.4304C18.5509 18.806 18.2533 19.252 18.0507 19.743C17.8482 20.2339 17.7446 20.7601 17.7461 21.2912C17.7476 21.8222 17.854 22.3478 18.0593 22.8376C18.2645 23.3274 18.5646 23.7718 18.9422 24.1453C19.3151 24.5252 19.7597 24.8274 20.2501 25.0345C20.7405 25.2416 21.2671 25.3495 21.7994 25.3519C22.3317 25.3544 22.8593 25.2513 23.3516 25.0487C23.8439 24.8461 24.2911 24.548 24.6675 24.1716C25.044 23.7952 25.3421 23.3479 25.5447 22.8556C25.7473 22.3633 25.8503 21.8358 25.8479 21.3034C25.8454 20.7711 25.7375 20.2445 25.5304 19.7541C25.3233 19.2637 25.0211 18.8189 24.6412 18.4459Z" fill="#013DFF"/>
<path d="M18.942 68.8602C19.3155 68.4826 19.7599 68.1825 20.2497 67.9772C20.7395 67.772 21.2651 67.6655 21.7962 67.6641C22.3273 67.6626 22.8534 67.7661 23.3443 67.9687C23.8353 68.1712 24.2814 68.4688 24.6569 68.8443C25.0324 69.2199 25.3301 69.6659 25.5326 70.1568C25.7352 70.6478 25.8388 71.1739 25.8373 71.705C25.8359 72.2361 25.7295 72.7616 25.5242 73.2515C25.319 73.7413 25.019 74.1857 24.6414 74.5592C24.2679 74.9368 23.8235 75.2369 23.3337 75.4421C22.8439 75.6474 22.3183 75.7538 21.7873 75.7553C21.2562 75.7568 20.73 75.6532 20.2391 75.4507C19.7481 75.2481 19.3021 74.9505 18.9265 74.575C18.551 74.1995 18.2534 73.7535 18.0508 73.2625C17.8482 72.7716 17.7447 72.2455 17.7461 71.7144C17.7475 71.1833 17.8539 70.6577 18.0592 70.1679C18.2644 69.6781 18.5645 69.2336 18.942 68.8602Z" fill="#013DFF"/>
<path d="M69.359 18.446C69.7333 18.0718 70.1775 17.7749 70.6665 17.5724C71.1554 17.3699 71.6795 17.2656 72.2087 17.2656C72.7379 17.2656 73.262 17.3699 73.7509 17.5724C74.2399 17.7749 74.6842 18.0718 75.0584 18.446C75.4326 18.8202 75.7295 19.2645 75.932 19.7534C76.1345 20.2424 76.2388 20.7664 76.2388 21.2957C76.2388 21.8249 76.1345 22.349 75.932 22.8379C75.7295 23.3269 75.4326 23.7711 75.0584 24.1453C74.6849 24.5229 74.2405 24.823 73.7507 25.0283C73.2609 25.2335 72.7353 25.34 72.2042 25.3414C71.6732 25.3429 71.147 25.2394 70.6561 25.0368C70.1651 24.8343 69.7191 24.5367 69.3435 24.1612C68.968 23.7856 68.6704 23.3396 68.4678 22.8487C68.2652 22.3577 68.1617 21.8316 68.1631 21.3005C68.1645 20.7694 68.2709 20.2439 68.4762 19.754C68.6814 19.2642 68.9815 18.8195 69.359 18.446Z" fill="#013DFF"/>
<path fill-rule="evenodd" clip-rule="evenodd" d="M66.5334 9.31713C68.049 10.1132 68.6324 11.9875 67.8363 13.5031L64.8089 19.2666C64.0128 20.7822 62.1388 21.3653 60.6229 20.5692C59.1073 19.7731 58.5239 17.8992 59.32 16.3833L62.3475 10.6201C63.1435 9.10416 65.0175 8.52105 66.5334 9.31713Z" fill="#013DFF"/>
<path fill-rule="evenodd" clip-rule="evenodd" d="M33.378 72.4343C34.8936 73.2306 35.477 75.1046 34.681 76.6205L31.6535 82.3837C30.8574 83.8993 28.9835 84.4827 27.4676 83.6866C25.9517 82.8906 25.3689 81.0163 26.1646 79.5007L29.1921 73.7372C29.9882 72.2216 31.8621 71.6382 33.378 72.4343Z" fill="#013DFF"/>
<path fill-rule="evenodd" clip-rule="evenodd" d="M27.4676 9.31713C25.9517 10.1132 25.3689 11.9875 26.1646 13.5031L29.1921 19.2666C29.9882 20.7822 31.8621 21.3653 33.378 20.5692C34.8936 19.7731 35.477 17.8992 34.681 16.3833L31.6535 10.6201C30.8574 9.10416 28.9835 8.52105 27.4676 9.31713Z" fill="#013DFF"/>
<path fill-rule="evenodd" clip-rule="evenodd" d="M60.6229 72.4343C59.1073 73.2306 58.5239 75.1046 59.32 76.6205L62.3475 82.3837C63.1435 83.8993 65.0175 84.4827 66.5334 83.6866C68.049 82.8906 68.6324 81.0163 67.8363 79.5007L64.8089 73.7372C64.0128 72.2216 62.1388 71.6382 60.6229 72.4343Z" fill="#013DFF"/>
<path fill-rule="evenodd" clip-rule="evenodd" d="M20.9684 33.0633C20.1829 34.5848 18.3129 35.1816 16.7918 34.396L11.0069 31.4101C9.48568 30.6249 8.88893 28.755 9.67385 27.2335C10.4594 25.712 12.3293 25.1156 13.8508 25.9005L19.6354 28.8867C21.1569 29.6722 21.7536 31.5422 20.9684 33.0633Z" fill="#013DFF"/>
<path fill-rule="evenodd" clip-rule="evenodd" d="M84.0481 26.7022C83.2411 25.1921 81.3629 24.6221 79.8528 25.429L74.1113 28.4974C72.6013 29.3043 72.0312 31.1823 72.8382 32.6923C73.6451 34.2023 75.5234 34.7724 77.0334 33.9655L82.7749 30.8974C84.2849 30.0905 84.855 28.2122 84.0481 26.7022Z" fill="#013DFF"/>
<path fill-rule="evenodd" clip-rule="evenodd" d="M20.9684 59.9366C20.1829 58.4152 18.3129 57.8184 16.7918 58.6039L11.0069 61.5899C9.48568 62.3751 8.88893 64.245 9.67385 65.7665C10.4594 67.2877 12.3293 67.8844 13.8508 67.0992L19.6354 64.1133C21.1569 63.3277 21.7536 61.4578 20.9684 59.9366Z" fill="#013DFF"/>
<path fill-rule="evenodd" clip-rule="evenodd" d="M84.0481 66.3017C83.2411 67.8117 81.3629 68.3818 79.8528 67.5749L74.1113 64.5065C72.6013 63.6996 72.0312 61.8213 72.8382 60.3113C73.6451 58.8013 75.5234 58.2315 77.0334 59.0384L82.7749 62.1065C84.2849 62.9134 84.855 64.7917 84.0481 66.3017Z" fill="#013DFF"/>
</g>
<defs>
<clipPath id="clip0_983_9003">
<rect width="93" height="93" fill="white" transform="translate(0.5)"/>
</clipPath>
</defs>
</svg>
