<svg width="53" height="69" viewBox="0 0 53 69" fill="none" xmlns="http://www.w3.org/2000/svg">
<path d="M29.3266 8.19223C28.1195 10.0022 15.2365 24.3226 15.2082 24.7218C15.0608 26.2193 21.446 26.505 22.2203 27.293C25.1493 30.2809 11.4578 38.4293 10.3803 39.9717C10.3803 39.9717 17.7039 40.8772 18.5671 40.7999C18.7332 40.7978 19.2965 40.6578 19.4303 40.7226L18.6465 41.8292C15.1809 46.4261 10.1383 49.8463 5.89841 53.6552C5.14281 54.3626 4.32032 55.0377 3.49783 55.7127C2.97111 56.1181 1.31992 56.9698 1.95216 57.0283C10.4085 58.1522 20.9658 51.8711 27.7244 47.4656C28.2187 47.1271 35.2144 43.0843 35.0806 43.0194C33.3147 40.017 24.9481 40.7532 27.3299 37.2002C29.8435 33.5459 35.3666 31.3495 39.2302 29.3402C40.6505 28.6244 42.0039 27.8762 43.4262 27.3266C44.0543 27.0529 45.7503 27.1313 45.3449 26.6046C43.7273 24.83 38.013 25.0345 35.7171 24.8306C35.6178 24.8651 34.1872 24.7501 34.2196 24.6832C33.9951 20.0328 47.398 15.3779 49.4841 12.0945C49.6137 11.827 48.2657 10.3482 48.0306 10.1517C46.251 8.71155 32.1953 6.36148 29.7092 6.89117" stroke="#ED9800" stroke-width="2.69654" stroke-miterlimit="1.5" stroke-linecap="round"/>
</svg>
