<svg width="25" height="24" viewBox="0 0 25 24" fill="none" xmlns="http://www.w3.org/2000/svg">
<g clip-path="url(#clip0_1093_232)">
<rect width="24" height="24" transform="translate(0.780518)" fill="white"/>
<path d="M23.004 0H2.55239C1.57271 0 0.780518 0.773438 0.780518 1.72969V22.2656C0.780518 23.2219 1.57271 24 2.55239 24H23.004C23.9836 24 24.7805 23.2219 24.7805 22.2703V1.72969C24.7805 0.773438 23.9836 0 23.004 0ZM7.90083 20.4516H4.33833V8.99531H7.90083V20.4516ZM6.11958 7.43438C4.97583 7.43438 4.05239 6.51094 4.05239 5.37187C4.05239 4.23281 4.97583 3.30937 6.11958 3.30937C7.25864 3.30937 8.18208 4.23281 8.18208 5.37187C8.18208 6.50625 7.25864 7.43438 6.11958 7.43438ZM21.2321 20.4516H17.6743V14.8828C17.6743 13.5562 17.6508 11.8453 15.8227 11.8453C13.9711 11.8453 13.6899 13.2937 13.6899 14.7891V20.4516H10.1368V8.99531H13.5493V10.5609H13.5961C14.0696 9.66094 15.2321 8.70938 16.9618 8.70938C20.5665 8.70938 21.2321 11.0813 21.2321 14.1656V20.4516Z" fill="#0A66C2"/>
</g>
<defs>
<clipPath id="clip0_1093_232">
<rect width="24" height="24" fill="white" transform="translate(0.780518)"/>
</clipPath>
</defs>
</svg>
