<svg width="62" height="59" viewBox="0 0 62 59" fill="none" xmlns="http://www.w3.org/2000/svg">
<path d="M22.5134 12.0804H14.2767C8.81801 12.0804 4.39282 16.5056 4.39282 21.9643C4.39283 27.4231 8.81801 31.8482 14.2767 31.8482H22.5134C26.3932 31.8482 31.1393 33.928 34.8008 35.924C36.9369 37.0885 38.005 37.6707 38.7045 37.585C39.3532 37.5056 39.8436 37.2143 40.2239 36.6828C40.6339 36.1096 40.6339 34.9628 40.6339 32.6691V11.2595C40.6339 8.96583 40.6339 7.81898 40.2239 7.2458C39.8436 6.71429 39.3532 6.42304 38.7045 6.34359C38.005 6.25792 36.9369 6.84014 34.8008 8.00459C31.1393 10.0006 26.3932 12.0804 22.5134 12.0804Z" fill="#DBF0E2"/>
<path d="M8.78569 30.75L12.2443 44.5844C12.3415 44.9735 12.3902 45.168 12.4477 45.3379C13.0098 46.9973 14.5041 48.164 16.2503 48.3068C16.429 48.3214 16.6296 48.3214 17.0306 48.3214C17.5328 48.3214 17.7839 48.3214 17.9955 48.3009C20.0863 48.0981 21.741 46.4435 21.9437 44.3527C21.9643 44.1411 21.9643 43.89 21.9643 43.3878V12.0804M40.6339 29.6518C44.8796 29.6518 48.3214 26.21 48.3214 21.9643C48.3214 17.7186 44.8796 14.2768 40.6339 14.2768M22.5134 12.0804H14.2767C8.818 12.0804 4.39282 16.5056 4.39282 21.9643C4.39283 27.4231 8.81801 31.8482 14.2767 31.8482H22.5134C26.3932 31.8482 31.1393 33.928 34.8008 35.924C36.9369 37.0885 38.005 37.6707 38.7045 37.585C39.3532 37.5056 39.8436 37.2143 40.2239 36.6828C40.6339 36.1096 40.6339 34.9628 40.6339 32.6691V11.2595C40.6339 8.96583 40.6339 7.81898 40.2239 7.2458C39.8436 6.71429 39.3532 6.42304 38.7045 6.34359C38.005 6.25792 36.9369 6.84014 34.8008 8.00459C31.1393 10.0006 26.3932 12.0804 22.5134 12.0804Z" stroke="#DBF0E2" stroke-width="2.63571" stroke-linecap="round" stroke-linejoin="round"/>
<path d="M17.5715 37.0078L21.03 50.8422C21.1273 51.2313 21.1759 51.4258 21.2335 51.5957C21.7955 53.2551 23.2899 54.4218 25.0361 54.5646C25.2148 54.5793 25.4153 54.5793 25.8164 54.5793C26.3186 54.5793 26.5697 54.5793 26.7812 54.5587C28.8721 54.356 30.5267 52.7013 30.7295 50.6105C30.75 50.3989 30.75 50.1478 30.75 49.6456V18.3382M49.4197 35.9096C53.6654 35.9096 57.1072 32.4678 57.1072 28.2221C57.1072 23.9764 53.6654 20.5346 49.4197 20.5346M31.2991 18.3382H23.0625C17.6038 18.3382 13.1786 22.7634 13.1786 28.2221C13.1786 33.6809 17.6038 38.106 23.0625 38.106H31.2991C35.179 38.106 39.925 40.1858 43.5866 42.1818C45.7227 43.3463 46.7907 43.9285 47.4903 43.8428C48.1389 43.7634 48.6294 43.4721 49.0096 42.9406C49.4197 42.3674 49.4197 41.2206 49.4197 38.9269V17.5174C49.4197 15.2236 49.4197 14.0768 49.0096 13.5036C48.6294 12.9721 48.1389 12.6809 47.4903 12.6014C46.7907 12.5157 45.7227 13.098 43.5866 14.2624C39.925 16.2584 35.179 18.3382 31.2991 18.3382Z" stroke="#43A363" stroke-width="2.63571" stroke-linecap="round" stroke-linejoin="round"/>
</svg>
