<svg width="62" height="59" viewBox="0 0 62 59" fill="none" xmlns="http://www.w3.org/2000/svg">
<path d="M46.1203 25.2569C46.1203 35.567 37.7623 43.925 27.4522 43.925C25.0873 43.925 22.8251 43.4853 20.743 42.6831C20.3623 42.5364 20.172 42.4631 20.0206 42.4282C19.8717 42.3939 19.7639 42.3796 19.6113 42.3737C19.456 42.3678 19.2857 42.3854 18.9452 42.4206L7.69811 43.5832C6.6258 43.694 6.08965 43.7495 5.77339 43.5565C5.49792 43.3885 5.31029 43.1078 5.26035 42.789C5.20301 42.423 5.45921 41.9488 5.97162 41.0004L9.56393 34.3511C9.85978 33.8035 10.0077 33.5297 10.0747 33.2665C10.1409 33.0065 10.1569 32.819 10.1357 32.5516C10.1143 32.2807 9.99545 31.9282 9.75781 31.2232C9.12634 29.3498 8.78406 27.3433 8.78406 25.2569C8.78406 14.9467 17.1421 6.58875 27.4522 6.58875C37.7623 6.58875 46.1203 14.9467 46.1203 25.2569Z" fill="#D0D0FB"/>
<path d="M26.5692 26.8644H35.3542M26.5692 34.5512H41.9429M36.4523 49.925C46.7624 49.925 55.1204 41.567 55.1204 31.2569C55.1204 20.9467 46.7624 12.5887 36.4523 12.5887C26.1422 12.5887 17.7842 20.9467 17.7842 31.2569C17.7842 33.3433 18.1265 35.3498 18.7579 37.2232C18.9956 37.9282 19.1144 38.2807 19.1358 38.5516C19.157 38.819 19.141 39.0065 19.0748 39.2665C19.0078 39.5297 18.8599 39.8035 18.5641 40.3511L14.9717 47.0004C14.4593 47.9488 14.2031 48.423 14.2605 48.789C14.3104 49.1078 14.498 49.3885 14.7735 49.5565C15.0898 49.7495 15.6259 49.694 16.6982 49.5832L27.9453 48.4206C28.2859 48.3854 28.4562 48.3678 28.6114 48.3737C28.7641 48.3796 28.8718 48.3939 29.0207 48.4282C29.1721 48.4631 29.3624 48.5364 29.7431 48.6831C31.8253 49.4853 34.0874 49.925 36.4523 49.925Z" stroke="#5B5BED" stroke-width="1.66667" stroke-linecap="round" stroke-linejoin="round"/>
</svg>
