<svg width="46" height="46" viewBox="0 0 46 46" fill="none" xmlns="http://www.w3.org/2000/svg">
<path fill-rule="evenodd" clip-rule="evenodd" d="M43.5521 14.4761C34.9185 30.53 17.6721 37.0569 1.65383 28.0189C1.12058 27.7179 0.444355 27.9061 0.143402 28.4327C-0.157551 28.9688 0.0305644 29.6459 0.563816 29.9469C17.7332 39.6432 36.2502 32.7307 45.5045 15.5294C45.7942 14.9933 45.592 14.3161 45.0531 14.0245C44.5142 13.7424 43.8418 13.94 43.5521 14.4761Z" fill="#2C7BE5"/>
<path d="M15.1336 21.1336C16.917 21.1336 18.3627 19.6878 18.3627 17.9044C18.3627 16.121 16.917 14.6753 15.1336 14.6753C13.3501 14.6753 11.9044 16.121 11.9044 17.9044C11.9044 19.6878 13.3501 21.1336 15.1336 21.1336Z" fill="#2C7BE5"/>
<path d="M28.5018 17.6987C30.2504 17.6987 31.6679 16.2813 31.6679 14.5327C31.6679 12.7842 30.2504 11.3667 28.5018 11.3667C26.7533 11.3667 25.3358 12.7842 25.3358 14.5327C25.3358 16.2813 26.7533 17.6987 28.5018 17.6987Z" fill="#2C7BE5"/>
</svg>
