<svg width="249" height="304" viewBox="0 0 249 304" fill="none" xmlns="http://www.w3.org/2000/svg">
<path d="M27.2993 160.168C42.2464 109.665 95.3046 80.8405 145.808 95.7875C196.312 110.735 215.556 160.958 200.609 211.461C185.662 261.965 163.555 300.814 113.051 285.867C62.5476 270.92 12.3523 210.672 27.2993 160.168Z" fill="#FDE3B4"/>
<path fill-rule="evenodd" clip-rule="evenodd" d="M212.942 115.037C217.303 114.452 221.633 113.901 225.982 113.192C229.664 112.59 232.162 109.106 231.559 105.423C230.957 101.741 227.479 99.2453 223.797 99.8476C219.574 100.537 215.37 101.069 211.132 101.641C207.431 102.139 204.837 105.545 205.335 109.246C205.835 112.941 209.241 115.535 212.942 115.037Z" fill="#FDE3B4"/>
<path fill-rule="evenodd" clip-rule="evenodd" d="M194.061 84.8283C203.167 74.4518 211.745 63.6226 220.625 53.0591C223.028 50.2029 222.656 45.9329 219.8 43.5294C216.942 41.1324 212.68 41.4999 210.277 44.3561C201.455 54.845 192.947 65.6034 183.898 75.9053C181.44 78.7099 181.718 82.9872 184.522 85.446C187.325 87.9112 191.602 87.633 194.061 84.8283Z" fill="#FDE3B4"/>
<path fill-rule="evenodd" clip-rule="evenodd" d="M148.705 64.9607C150.191 53.4358 151.359 41.8448 152.98 30.3388C153.494 26.6484 150.918 23.2277 147.223 22.7053C143.526 22.1893 140.105 24.7657 139.583 28.4607C137.968 40.0178 136.787 51.6542 135.292 63.2329C134.817 66.9348 137.43 70.3241 141.132 70.7993C144.832 71.2809 148.23 68.6626 148.705 64.9607Z" fill="#FDE3B4"/>
</svg>
