<svg width="137" height="9" viewBox="0 0 137 9" fill="none" xmlns="http://www.w3.org/2000/svg">
<path fill-rule="evenodd" clip-rule="evenodd" d="M57.9048 0.985446C51.4996 1.24183 45.1695 1.55707 38.9967 1.90172C30.2583 2.38926 21.5233 2.89362 12.841 3.69219C10.108 3.94437 7.3326 4.10407 4.61669 4.41929C2.9118 4.61683 0.651172 4.89839 0.354493 4.95724C0.199317 4.99086 0.131619 5.04134 0.109744 5.05815C-0.0440641 5.17584 -0.0159998 5.28927 0.0708166 5.37753C0.10568 5.41536 0.193839 5.50786 0.438565 5.52047C16.8052 6.38208 33.5409 4.70089 49.9273 4.52437C78.3443 4.22175 107.623 5.42381 135.814 8.04646C136.06 8.06748 136.299 7.96237 136.333 7.80686C136.374 7.65556 136.197 7.50845 135.951 7.48743C107.711 4.86058 78.3853 3.65432 49.9136 3.96113C34.6421 4.12505 19.0692 5.60032 3.77655 5.09597C4.12791 5.05394 4.47246 5.01189 4.78692 4.97406C7.4919 4.65884 10.2557 4.50334 12.9777 4.25116C21.6416 3.4526 30.3588 2.94824 39.0855 2.4649C49.9136 1.85967 61.2134 1.3385 72.6021 1.09473C76.6763 1.13255 80.7368 1.1704 84.7974 1.21663C93.5815 1.3175 102.407 1.61171 111.17 2.00679C113.809 2.12868 116.448 2.25476 119.086 2.36403C119.961 2.40186 122.217 2.51112 122.532 2.50271C122.921 2.49431 122.997 2.29258 123.003 2.25896C123.024 2.18331 123.01 2.07823 122.819 1.98996C122.798 1.97735 122.675 1.9353 122.402 1.91008C106.467 0.422227 89.4527 0.174291 72.6158 0.531544C54.856 0.376034 37.0279 0.308755 19.3133 0.237305C19.0597 0.237305 18.8525 0.363412 18.8505 0.518922C18.8491 0.674432 19.0535 0.800544 19.3071 0.804747C32.134 0.855183 45.0259 0.90559 57.9048 0.985446Z" fill="#ED9800"/>
</svg>
