<svg width="25" height="24" viewBox="0 0 25 24" fill="none" xmlns="http://www.w3.org/2000/svg">
<g clip-path="url(#clip0_1093_230)">
<path d="M8.32804 21.7508C17.3847 21.7508 22.3383 14.2474 22.3383 7.74052C22.3383 7.5274 22.3383 7.31524 22.3239 7.10404C23.2876 6.407 24.1194 5.54392 24.7805 4.55524C23.8819 4.95364 22.9286 5.2148 21.9524 5.32996C22.9803 4.71465 23.7497 3.74674 24.1172 2.60644C23.1506 3.18005 22.0932 3.58427 20.9904 3.80164C20.248 3.01222 19.2661 2.48948 18.1967 2.31432C17.1273 2.13917 16.0299 2.32135 15.0745 2.83269C14.119 3.34403 13.3587 4.15601 12.9113 5.14299C12.4638 6.12996 12.3541 7.23691 12.5991 8.29252C10.6414 8.19432 8.72627 7.68555 6.97797 6.79924C5.22967 5.91294 3.68728 4.6689 2.45092 3.14788C1.82125 4.23188 1.62839 5.51511 1.91162 6.7363C2.19484 7.9575 2.93286 9.02483 3.9754 9.721C3.19175 9.69804 2.42517 9.48663 1.74052 9.10468V9.16708C1.74083 10.3039 2.13437 11.4057 2.85439 12.2854C3.57441 13.1652 4.57658 13.7689 5.69092 13.994C4.966 14.1917 4.20539 14.2206 3.46756 14.0784C3.78233 15.0568 4.39495 15.9123 5.21976 16.5254C6.04457 17.1385 7.04034 17.4785 8.06788 17.498C7.04696 18.3004 5.87783 18.8938 4.62739 19.244C3.37695 19.5942 2.06973 19.6944 0.780518 19.5389C3.03235 20.9839 5.65244 21.7504 8.32804 21.7469" fill="#1DA1F2"/>
</g>
<defs>
<clipPath id="clip0_1093_230">
<rect width="24" height="24" fill="white" transform="translate(0.780518)"/>
</clipPath>
</defs>
</svg>
